<?xml version="1.0" encoding="UTF-8" standalone="no"?>
<!-- Generator: Adobe Illustrator 19.0.1, SVG Export Plug-In . SVG Version: 6.00 Build 0)  -->

<svg
   xmlns:dc="http://purl.org/dc/elements/1.1/"
   xmlns:cc="http://creativecommons.org/ns#"
   xmlns:rdf="http://www.w3.org/1999/02/22-rdf-syntax-ns#"
   xmlns:svg="http://www.w3.org/2000/svg"
   xmlns="http://www.w3.org/2000/svg"
   xmlns:sodipodi="http://sodipodi.sourceforge.net/DTD/sodipodi-0.dtd"
   xmlns:inkscape="http://www.inkscape.org/namespaces/inkscape"
   version="1.1"
   id="Layer_1"
   x="0px"
   y="0px"
   viewBox="-148 -60 324.10001 367.39999"
   xml:space="preserve"
   sodipodi:docname="CSS_3.svg"
   width="324.10001"
   height="367.39999"
   inkscape:version="0.92.4 (5da689c313, 2019-01-14)"><metadata
   id="metadata32"><rdf:RDF><cc:Work
       rdf:about=""><dc:format>image/svg+xml</dc:format><dc:type
         rdf:resource="http://purl.org/dc/dcmitype/StillImage" /><dc:title></dc:title></cc:Work></rdf:RDF></metadata><defs
   id="defs30" /><sodipodi:namedview
   pagecolor="#ffffff"
   bordercolor="#666666"
   borderopacity="1"
   objecttolerance="10"
   gridtolerance="10"
   guidetolerance="10"
   inkscape:pageopacity="0"
   inkscape:pageshadow="2"
   inkscape:window-width="1920"
   inkscape:window-height="1017"
   id="namedview28"
   showgrid="false"
   fit-margin-top="0"
   fit-margin-left="0"
   fit-margin-right="0"
   fit-margin-bottom="0"
   inkscape:zoom="1.3906433"
   inkscape:cx="201.07989"
   inkscape:cy="246.68563"
   inkscape:window-x="-8"
   inkscape:window-y="-8"
   inkscape:window-maximized="1"
   inkscape:current-layer="Layer_1" />
<style
   type="text/css"
   id="style2">
	.st0{fill:#0170BA;}
	.st1{fill:#29A9DF;}
	.st2{fill:#CFCFCF;}
	.st3{fill:#FFFFFF;}
</style>

<g
   id="_x23_0170baff"
   transform="translate(-8.8,-100.1)">
	<path
   class="st0"
   d="m -139.1,40.1 c 108,0 216,0 324,0 -5.9,67.2 -11.8,134.3 -18,201.5 -3.7,42.9 -7.5,85.8 -11.5,128.7 -23,6.1 -45.9,13.1 -68.9,19.2 -21.2,6.2 -42.5,11.8 -63.7,18 h -0.6 c -20.1,-6 -40.5,-11.3 -60.6,-17.3 -23.8,-6.4 -47.3,-13.6 -71.1,-19.9 -3.1,-32.1 -5.9,-64.3 -8.7,-96.5 -5.2,-59.4 -10.9,-118.8 -15.9,-178.3 -1.7,-17.9 -3,-35.8 -5.1,-53.7 V 40.1 M 23.4,66.6 c -0.2,12.9 0.2,25.8 -0.2,38.7 -37.1,-0.1 -74.1,0 -111.2,0 0.6,12.5 2.3,25 4,37.4 34.5,1.3 69,0 103.5,1 -30.2,13.5 -60.7,26.3 -91,39.5 -2.6,1.2 -5.4,2 -7.7,3.7 0.3,13.8 2.5,27.4 3.5,41.2 18.4,-0.1 36.7,-0.4 55.1,-0.4 14.7,-0.1 29.5,0.2 44.2,-0.1 -0.7,22.6 0.2,45.3 -0.5,67.9 -9.9,-1.5 -19.7,-3.7 -29.6,-5.4 -7.8,-1.7 -15.8,-2.6 -23.4,-4.8 -1.1,-10.9 -1.8,-21.7 -2.8,-32.6 -2.2,-0.7 -4.6,-0.6 -6.9,-0.7 -11.1,0.1 -22.3,0 -33.4,0.1 1.1,20.9 3,41.7 6.2,62.4 11,2.9 22,5.7 32.9,8.7 16.8,4.6 33.8,8.4 50.6,12.9 2,0.4 4,1.2 6.1,1 1.1,13.7 0.3,27.6 0.5,41.3 3.9,-0.6 7.7,-1.6 11.4,-2.7 31.8,-8.6 63.6,-17.5 95.5,-26.2 1.6,-12.5 2.3,-25.1 3.6,-37.7 3.3,-38.1 6.6,-76.3 10.1,-114.4 4.1,-43.6 7.6,-87.3 11.7,-130.9 -44.1,0.1 -88.2,0 -132.2,0.1 z"
   id="path11"
   inkscape:connector-curvature="0"
   style="fill:#0170ba" />
</g>
<g
   id="_x23_29a9dfff"
   transform="translate(-8.8,-100.1)">
	<path
   class="st1"
   d="m 23.4,66.6 c 44,-0.1 88.1,0 132.2,-0.1 -4.1,43.6 -7.6,87.3 -11.7,130.9 -3.5,38.1 -6.8,76.3 -10.1,114.4 -1.3,12.5 -2,25.1 -3.6,37.7 -31.8,8.7 -63.6,17.5 -95.5,26.2 -3.7,1.2 -7.6,2.1 -11.4,2.7 -0.2,-13.8 0.7,-27.6 -0.5,-41.3 0.3,-0.1 0.9,-0.2 1.1,-0.2 29.6,-7.4 59,-15.6 88.6,-23.3 3.7,-41.9 7.9,-83.8 10.5,-125.8 -25.1,0.1 -50.3,0.1 -75.4,0.2 -3.7,0 -7.3,0 -11,-0.3 13.5,-7 27.7,-12.5 41.6,-18.7 13.3,-6 26.8,-11.7 40.2,-17.6 2.6,-1.2 5.3,-2.2 7.6,-3.9 0.9,-3.3 0.8,-6.7 1.2,-10 0.8,-10.6 2.1,-21.2 2.6,-31.8 -35.6,-0.3 -71.2,0 -106.8,-0.2 0.6,-13 0.2,-26 0.4,-38.9 z"
   id="path14"
   inkscape:connector-curvature="0"
   style="fill:#29a9df" />
	<path
   class="st1"
   d="m 23.6,227.6 c 17.2,-0.3 34.4,0.2 51.6,0.1 -1,17.6 -2.4,35.1 -3.3,52.7 -10.5,3.4 -21.2,6.4 -31.8,9.5 -5.7,1.7 -11.5,3.1 -16.9,5.6 0.6,-22.6 -0.3,-45.2 0.4,-67.9 z"
   id="path16"
   inkscape:connector-curvature="0"
   style="fill:#29a9df" />
</g>
<g
   id="_x23_cfcfcfff"
   transform="translate(-8.8,-100.1)">
	<path
   class="st2"
   d="m -88,105.4 c 37.1,0 74.1,-0.1 111.2,0 0.5,40.8 -0.1,81.5 0.4,122.3 -14.7,0.3 -29.5,0 -44.2,0.1 -18.4,0 -36.7,0.3 -55.1,0.4 -1,-13.7 -3.2,-27.4 -3.5,-41.2 2.3,-1.7 5.1,-2.6 7.7,-3.7 30.3,-13.2 60.8,-26 91,-39.5 -34.5,-1 -69,0.3 -103.5,-1 -1.7,-12.5 -3.4,-24.9 -4,-37.4 z"
   id="path19"
   inkscape:connector-curvature="0"
   style="fill:#cfcfcf" />
	<path
   class="st2"
   d="m -73,252.1 c 11.1,-0.2 22.3,-0.1 33.4,-0.1 2.3,0 4.6,0 6.9,0.7 1,10.9 1.7,21.8 2.8,32.6 7.7,2.2 15.6,3.1 23.4,4.8 9.9,1.8 19.7,4 29.6,5.4 0.9,13.8 -0.7,27.6 0.9,41.3 -0.3,0.1 -0.9,0.2 -1.1,0.2 -2.1,0.2 -4.1,-0.6 -6.1,-1 -16.8,-4.5 -33.8,-8.3 -50.6,-12.9 -11,-3 -22,-5.8 -32.9,-8.7 C -70,293.9 -71.9,273 -73,252.1 Z"
   id="path21"
   inkscape:connector-curvature="0"
   style="fill:#cfcfcf" />
</g>
<g
   id="_x23_ffffffff"
   transform="translate(-8.8,-100.1)">
	<path
   class="st3"
   d="m 23.2,105.4 c 35.6,0.2 71.2,-0.1 106.8,0.2 -0.5,10.6 -1.9,21.2 -2.6,31.8 -0.4,3.3 -0.3,6.8 -1.2,10 -2.3,1.8 -5,2.7 -7.6,3.9 -13.4,5.9 -26.8,11.6 -40.2,17.6 -13.9,6.2 -28.1,11.7 -41.6,18.7 3.6,0.3 7.3,0.3 11,0.3 25.1,-0.1 50.3,0 75.4,-0.2 -2.6,42 -6.8,83.9 -10.5,125.8 -29.5,7.7 -59,15.9 -88.6,23.3 -1.6,-13.7 0.1,-27.6 -0.9,-41.3 5.4,-2.5 11.2,-3.9 16.9,-5.6 10.6,-3.2 21.3,-6.1 31.8,-9.5 0.9,-17.6 2.4,-35.1 3.3,-52.7 -17.2,0.1 -34.4,-0.4 -51.6,-0.1 -0.6,-40.7 0,-81.5 -0.4,-122.2 z"
   id="path24"
   inkscape:connector-curvature="0"
   style="fill:#ffffff" />
</g>
</svg>