<?xml version="1.0" encoding="UTF-8" standalone="no"?>
<svg
   xmlns:dc="http://purl.org/dc/elements/1.1/"
   xmlns:cc="http://creativecommons.org/ns#"
   xmlns:rdf="http://www.w3.org/1999/02/22-rdf-syntax-ns#"
   xmlns:svg="http://www.w3.org/2000/svg"
   xmlns="http://www.w3.org/2000/svg"
   xmlns:sodipodi="http://sodipodi.sourceforge.net/DTD/sodipodi-0.dtd"
   xmlns:inkscape="http://www.inkscape.org/namespaces/inkscape"
   viewBox="0 0 20 20"
   version="1.1"
   id="svg5"
   sodipodi:docname="Linkedin.svg"
   width="20"
   height="20"
   inkscape:version="0.92.4 (5da689c313, 2019-01-14)">
  <defs
     id="defs9" />
  <sodipodi:namedview
     pagecolor="#ffffff"
     bordercolor="#666666"
     borderopacity="1"
     objecttolerance="10"
     gridtolerance="10"
     guidetolerance="10"
     inkscape:pageopacity="0"
     inkscape:pageshadow="2"
     inkscape:window-width="1920"
     inkscape:window-height="1017"
     id="namedview7"
     showgrid="false"
     fit-margin-top="0"
     fit-margin-left="0"
     fit-margin-right="0"
     fit-margin-bottom="0"
     inkscape:zoom="27.812867"
     inkscape:cx="5.5144615"
     inkscape:cy="13.914271"
     inkscape:window-x="-8"
     inkscape:window-y="-8"
     inkscape:window-maximized="1"
     inkscape:current-layer="svg5" />
  <path
     d="M 18,0 H 2 C 0.898,0 0,0.898 0,2 v 16 c 0,1.102 0.898,2 2,2 h 16 c 1.102,0 2,-0.898 2,-2 V 2 C 20,0.898 19.102,0 18,0 Z M 6.102,16 H 3 V 7.398 H 6.102 Z M 4.5,6.398 C 3.602,6.398 3,5.801 3,5 3,4.2 3.602,3.602 4.602,3.602 5.5,3.602 6.102,4.199 6.102,5 6.102,5.8 5.5,6.398 4.5,6.398 Z M 17,16 H 13.898 V 11.3 C 13.898,10 13.102,9.7 12.801,9.7 12.5,9.7 11.5,9.898 11.5,11.3 V 16 H 8.398 V 7.398 H 11.5 v 1.204 c 0.398,-0.704 1.2,-1.204 2.7,-1.204 1.5,0 2.698,1.204 2.698,3.903 V 16 Z"
     id="surface1"
     inkscape:connector-curvature="0"
     style="fill:#ffffe7;fill-opacity:1;" />
  <metadata
     id="metadata3">
    <rdf:RDF>
      <rdf:Description
         about="https://iconscout.com/legal#licenses"
         dc:title="linkedin"
         dc:description="linkedin"
         dc:publisher="Iconscout"
         dc:date="2018-06-22"
         dc:format="image/svg+xml"
         dc:language="en">
        <dc:creator>
          <rdf:Bag>
            <rdf:li>Icons8</rdf:li>
          </rdf:Bag>
        </dc:creator>
      </rdf:Description>
      <cc:Work
         rdf:about="">
        <dc:format>image/svg+xml</dc:format>
        <dc:type
           rdf:resource="http://purl.org/dc/dcmitype/StillImage" />
        <dc:title />
      </cc:Work>
    </rdf:RDF>
  </metadata>
</svg>
