<?xml version="1.0" standalone="no"?>
<!DOCTYPE svg PUBLIC "-//W3C//DTD SVG 20010904//EN"
 "http://www.w3.org/TR/2001/REC-SVG-20010904/DTD/svg10.dtd">
<svg version="1.0" xmlns="http://www.w3.org/2000/svg"
 width="225.000000pt" height="225.000000pt" viewBox="0 0 225.000000 225.000000"
 preserveAspectRatio="xMidYMid meet">
<metadata>
Created by potrace 1.11, written by Peter Selinger 2001-2013
</metadata>
<g transform="translate(0.000000,225.000000) scale(0.100000,-0.100000)"
fill="#000000" stroke="none">
<path d="M1010 2245 c-8 -2 -49 -9 -90 -15 -146 -24 -314 -95 -450 -191 -228
-161 -395 -422 -451 -704 -18 -91 -18 -329 0 -420 90 -453 443 -806 896 -896
91 -18 329 -18 420 0 453 90 806 443 896 896 18 91 18 329 0 420 -89 447 -431
795 -876 892 -64 13 -310 27 -345 18z m300 -607 c0 -7 -77 -226 -172 -485
-132 -366 -176 -474 -190 -479 -26 -8 -68 3 -68 19 0 17 331 929 343 945 5 6
27 12 48 12 25 0 39 -5 39 -12z m-492 -260 l-3 -43 -184 -92 -184 -92 186 -90
187 -90 0 -40 c0 -30 -4 -41 -15 -41 -8 0 -114 51 -235 113 l-221 112 3 40 3
40 220 112 c121 62 226 112 233 113 9 0 12 -12 10 -42z m807 -71 l220 -112 3
-40 2 -40 -222 -113 c-123 -62 -229 -113 -235 -113 -8 1 -13 16 -13 41 l0 40
186 93 185 92 -183 90 -183 90 -3 43 c-2 30 1 42 10 42 7 -1 112 -51 233 -113z"/>
</g>
</svg>
