<?xml version="1.0" encoding="UTF-8" standalone="no"?>
<svg
   xmlns:dc="http://purl.org/dc/elements/1.1/"
   xmlns:cc="http://creativecommons.org/ns#"
   xmlns:rdf="http://www.w3.org/1999/02/22-rdf-syntax-ns#"
   xmlns:svg="http://www.w3.org/2000/svg"
   xmlns="http://www.w3.org/2000/svg"
   xmlns:sodipodi="http://sodipodi.sourceforge.net/DTD/sodipodi-0.dtd"
   xmlns:inkscape="http://www.inkscape.org/namespaces/inkscape"
   id="master-artboard"
   viewBox="0 0 2149.5998 1758.4001"
   version="1.1"
   x="0px"
   y="0px"
   width="551.17944"
   height="450.8718"
   sodipodi:docname="code-girl — kopia — kopia.svg"
   inkscape:version="0.92.4 (5da689c313, 2019-01-14)">
  <metadata
     id="metadata810">
    <rdf:RDF>
      <cc:Work
         rdf:about="">
        <dc:format>image/svg+xml</dc:format>
        <dc:type
           rdf:resource="http://purl.org/dc/dcmitype/StillImage" />
        <dc:title></dc:title>
      </cc:Work>
    </rdf:RDF>
  </metadata>
  <defs
     id="defs808" />
  <sodipodi:namedview
     pagecolor="#ffffff"
     bordercolor="#666666"
     borderopacity="1"
     objecttolerance="10"
     gridtolerance="10"
     guidetolerance="10"
     inkscape:pageopacity="0"
     inkscape:pageshadow="2"
     inkscape:window-width="1920"
     inkscape:window-height="1017"
     id="namedview806"
     showgrid="false"
     inkscape:zoom="1.4142136"
     inkscape:cx="384.04401"
     inkscape:cy="231.43166"
     inkscape:window-x="-8"
     inkscape:window-y="-8"
     inkscape:window-maximized="1"
     inkscape:current-layer="master-artboard"
     scale-x="3.9"
     fit-margin-top="0"
     fit-margin-left="0"
     fit-margin-right="0"
     fit-margin-bottom="0" />
  <g
     id="g453"
     transform="translate(-424.29999,-241.8)">
    <path
       d="M 424.29999,1056.7 H 2521.6001 l 52.2998,-74.60002 H 476.60001 Z"
       class="st1"
       style="fill:#b3e8de"
       id="path441"
       inkscape:connector-curvature="0" />
    <path
       d="M 424.29999,1172.6 H 2521.6001 l 52.2998,-74.6 H 476.60001 Z"
       class="st1"
       style="fill:#b3e8de"
       id="path443"
       inkscape:connector-curvature="0" />
    <path
       d="M 424.29999,1288.5 H 2521.6001 l 52.2998,-74.6 H 476.60001 Z"
       class="st1"
       style="fill:#b3e8de"
       id="path445"
       inkscape:connector-curvature="0" />
    <path
       d="M 424.29999,1411 H 2521.6001 l 52.2998,-74.6 H 476.60001 Z"
       class="st1"
       style="fill:#b3e8de"
       id="path447"
       inkscape:connector-curvature="0" />
    <path
       d="m 2428.2,378.29999 h 15.3 V 1598.7 h -15.3 z"
       class="st1"
       style="fill:#b3e8de"
       id="path449"
       inkscape:connector-curvature="0" />
    <path
       d="m 2457.4,1634.3 a 21.6,58.299999 0 0 1 -21.6,58.3 21.6,58.299999 0 0 1 -21.6,-58.3 21.6,58.299999 0 0 1 21.6,-58.2999 21.6,58.299999 0 0 1 21.6,58.2999 z"
       class="st1"
       style="fill:#b3e8de"
       id="path451"
       inkscape:connector-curvature="0" />
  </g>
  <path
     d="M 9.9999997e-6,211.10011 H 2097.3 l 52.2998,-74.6 H 52.30001 Z"
     class="st1"
     style="fill:#b3e8de"
     id="path455"
     inkscape:connector-curvature="0" />
  <path
     d="M 9.9999997e-6,327.00011 H 2097.3 l 52.2998,-74.60001 H 52.30001 Z"
     class="st1"
     style="fill:#b3e8de"
     id="path457"
     inkscape:connector-curvature="0" />
  <path
     d="M 9.9999997e-6,442.9001 H 2097.3 l 52.2998,-74.6 H 52.30001 Z"
     class="st1"
     style="fill:#b3e8de"
     id="path459"
     inkscape:connector-curvature="0" />
  <path
     d="M 9.9999997e-6,565.4001 H 2097.3 l 52.2998,-74.6 H 52.30001 Z"
     class="st1"
     style="fill:#b3e8de"
     id="path461"
     inkscape:connector-curvature="0" />
  <g
     id="g465"
     transform="translate(-424.29999,-241.8)">
    <path
       class="st2"
       d="m 1313.7,915.9 -35.3,-3.1 c -0.1,-0.4 -0.2,-0.8 -0.3,-1.1 l 29,-20.4 c 2.2,-1.5 2.8,-4.4 1.5,-6.7 l -7.2,-12.6 -7.2,-12.6 c -1.3,-2.3 -4.1,-3.2 -6.5,-2.1 l -32.2,15 c -0.3,-0.3 -0.6,-0.6 -0.8,-0.8 l 15,-32.2 c 1.1,-2.4 0.2,-5.2 -2.1,-6.5 l -12.6,-7.2 -12.6,-7.2 c -2.3,-1.3 -5.2,-0.7 -6.7,1.5 l -20.4,29 c -0.4,-0.1 -0.8,-0.2 -1.1,-0.3 l -3.1,-35.3 c -0.2,-2.6 -2.4,-4.6 -5,-4.6 h -14.5 -14.6 c -2.6,0 -4.8,2 -5,4.6 l -3.1,35.3 c -0.4,0.1 -0.8,0.2 -1.1,0.3 l -20.4,-29 c -1.5,-2.2 -4.4,-2.8 -6.7,-1.5 l -12.6,7.2 -12.6,7.2 c -2.3,1.3 -3.2,4.1 -2.1,6.5 l 15,32.2 c -0.3,0.3 -0.6,0.6 -0.8,0.8 l -32.2,-15 c -2.4,-1.1 -5.2,-0.2 -6.5,2.1 l -7.2,12.6 -7.2,12.6 c -1.3,2.3 -0.7,5.2 1.5,6.7 l 29,20.4 c -0.1,0.4 -0.2,0.8 -0.3,1.1 l -35.3,3.1 c -2.6,0.2 -4.6,2.4 -4.6,5 v 14.5 14.5 c 0,2.6 2,4.8 4.6,5 l 35.3,3.1 c 0.1,0.4 0.2,0.8 0.3,1.1 l -29,20.4 c -2.1,1.5 -2.8,4.4 -1.5,6.7 l 7.2,12.6 7.2,12.6 c 1.3,2.3 4.1,3.2 6.5,2.1 l 32.2,-15 c 0.3,0.3 0.6,0.6 0.8,0.8 l -15,32.2 c -1.1,2.4 -0.2,5.2 2.1,6.5 l 12.6,7.2 12.6,7.2 c 2.3,1.3 5.2,0.7 6.7,-1.5 l 20.4,-29 c 0.4,0.1 0.8,0.2 1.1,0.3 l 3.1,35.3 c 0.2,2.6 2.4,4.6 5,4.6 h 14.5 14.5 c 2.6,0 4.8,-2 5,-4.6 l 3.1,-35.3 c 0.4,-0.1 0.8,-0.2 1.1,-0.3 l 20.4,29 c 1.5,2.2 4.4,2.8 6.7,1.5 l 12.6,-7.2 12.6,-7.2 c 2.3,-1.3 3.2,-4.1 2.1,-6.5 l -15,-32.2 c 0.3,-0.3 0.6,-0.6 0.8,-0.8 l 32.2,15 c 2.4,1.1 5.2,0.2 6.5,-2.1 l 7.2,-12.6 7.2,-12.6 c 1.3,-2.3 0.7,-5.2 -1.5,-6.7 l -29,-20.4 c 0.1,-0.4 0.2,-0.8 0.3,-1.1 l 35.3,-3.1 c 2.6,-0.2 4.6,-2.4 4.6,-5 v -14.5 -14.5 c 0.1,-2.6 -1.9,-4.8 -4.5,-5 z m -122.2,86.6 c -37,0 -67,-30 -67,-67 0,-37 30,-67 67,-67 37,0 67,30 67,67 0,37 -29.9,67 -67,67 z"
       style="fill:#80bcb0"
       id="path463"
       inkscape:connector-curvature="0" />
  </g>
  <path
     class="st2"
     d="m 1143.9999,332.8001 -53.4,-4.7 c -0.2,-0.6 -0.3,-1.2 -0.5,-1.7 l 43.9,-30.8 c 3.2,-2.3 4.2,-6.7 2.2,-10.1 l -10.9,-19 -10.9,-19 c -2,-3.4 -6.3,-4.8 -9.9,-3.1 l -48.6,22.6 c -0.4,-0.4 -0.8,-0.8 -1.3,-1.3 l 22.6,-48.6 c 1.7,-3.6 0.3,-7.9 -3.1,-9.9 l -19,-10.9 -19,-10.9 c -3.4,-2 -7.8,-1 -10.1,2.20001 l -30.79999,43.9 c -0.6,-0.20001 -1.1,-0.3 -1.7,-0.5 l -4.7,-53.4 c -0.3,-4 -3.7,-7 -7.6,-7 h -21.9 -21.9 c -4,0 -7.3,3 -7.6,7 l -4.7,53.4 c -0.6,0.2 -1.2,0.29999 -1.7,0.5 l -30.7999,-43.9 c -2.3,-3.20001 -6.7,-4.20001 -10.1,-2.20001 l -19,10.9 -19,10.9 c -3.4,2 -4.8,6.3 -3.1,9.9 l 22.6,48.6 c -0.4,0.4 -0.8,0.8 -1.3,1.3 l -48.6,-22.6 c -3.6,-1.7 -7.9,-0.3 -9.9,3.1 l -10.9,19 -10.9,19 c -2,3.4 -1,7.8 2.2,10.1 l 43.9,30.8 c -0.2,0.6 -0.3,1.1 -0.5,1.7 l -53.4,4.7 c -4,0.3 -7,3.70001 -7,7.6 v 21.9 21.9 c 0,4 3,7.3 7,7.6 l 53.4,4.70001 c 0.2,0.6 0.3,1.2 0.5,1.7 l -43.9,30.8 c -3.2,2.29999 -4.2,6.7 -2.2,10.1 l 10.9,19 10.9,19 c 2,3.4 6.3,4.79999 9.9,3.1 l 48.6,-22.6 c 0.4,0.4 0.8,0.79999 1.3,1.29999 l -22.6,48.60001 c -1.7,3.6 -0.3,7.89999 3.1,9.89999 l 19,10.9 19,10.9 c 3.4,2 7.8,1 10.1,-2.2 l 30.7999,-43.9 c 0.6,0.2 1.1,0.3 1.7,0.5 l 4.7,53.4 c 0.3,4 3.7,7 7.6,7 h 21.9 21.9 c 4,0 7.3,-3 7.6,-7 l 4.7,-53.4 c 0.6,-0.2 1.2,-0.3 1.7,-0.5 l 30.79999,43.9 c 2.3,3.2 6.7,4.2 10.1,2.2 l 19,-10.9 19,-10.9 c 3.4,-2 4.8,-6.29999 3.1,-9.89999 l -22.6,-48.60001 c 0.4,-0.39999 0.8,-0.79999 1.3,-1.29999 l 48.6,22.6 c 3.6,1.7 7.9,0.3 9.9,-3.1 l 10.9,-19 10.9,-19 c 2,-3.4 1,-7.8 -2.2,-10.1 l -43.9,-30.8 c 0.2,-0.6 0.3,-1.1 0.5,-1.7 l 53.4,-4.70001 c 4,-0.29999 7,-3.7 7,-7.6 v -21.9 -21.9 c 0,-4 -3,-7.29999 -7,-7.6 z m -184.49999,130.8 c -55.8999,0 -101.2999,-45.3 -101.2999,-101.3 0,-56 45.3,-101.29999 101.2999,-101.29999 55.89999,0 101.29999,45.29999 101.29999,101.29999 0,56 -45.3,101.3 -101.29999,101.3 z"
     style="fill:#80bcb0"
     id="path467"
     inkscape:connector-curvature="0" />
  <path
     d="m 1036.5999,362.3001 a 77.099998,77.099998 0 0 1 -77.09999,77.1 77.099998,77.099998 0 0 1 -77.0998,-77.1 77.099998,77.099998 0 0 1 77.0998,-77.1 77.099998,77.099998 0 0 1 77.09999,77.1 z"
     class="st2"
     style="fill:#80bcb0"
     id="path469"
     inkscape:connector-curvature="0" />
  <path
     class="st2"
     d="m 772.00001,116.4001 -41.7,-4.1 c -2.3,-10.29999 -6.3,-19.9 -11.8,-28.5 l 26.6,-32.4 c 1,-1.2 0.9,-3 -0.2,-4.1 l -8.7,-8.7 -8.7,-8.70001 c -1.1,-1.1 -2.9,-1.2 -4.1,-0.2 l -32.4,26.60001 c -8.6,-5.5 -18.2,-9.5 -28.5,-11.8 l -4.1,-41.7001 c -0.2,-1.6 -1.5,-2.8 -3,-2.8 h -12.3 -12.3 c -1.6,0 -2.9,1.2 -3,2.8 l -4.1,41.7001 c -10.3,2.3 -19.9,6.3 -28.5,11.8 l -32.4,-26.60001 c -1.2,-1 -3,-0.9 -4.1,0.2 l -8.7,8.70001 -8.7,8.7 c -1.1,1.1 -1.2,2.9 -0.2,4.1 l 26.6,32.4 c -5.5,8.6 -9.5,18.20001 -11.8,28.5 l -41.7,4.1 c -1.6,0.20001 -2.8,1.5 -2.8,3 v 12.3 12.3 c 0,1.6 1.2,2.9 2.8,3 l 41.7,4.1 c 2.3,10.3 6.3,19.9 11.8,28.5 l -26.6,32.4 c -1,1.2 -0.9,3 0.2,4.1 l 8.7,8.7 8.7,8.70001 c 1.1,1.1 2.9,1.2 4.1,0.2 l 32.4,-26.6 c 8.6,5.5 18.2,9.5 28.5,11.79999 l 4.1,41.70001 c 0.2,1.6 1.5,2.79999 3,2.79999 h 12.3 12.3 c 1.6,0 2.9,-1.2 3,-2.79999 l 4.1,-41.70001 c 10.3,-2.29999 19.9,-6.29999 28.5,-11.79999 l 32.4,26.6 c 1.2,1 3,0.9 4.1,-0.2 l 8.7,-8.70001 8.7,-8.7 c 1.1,-1.1 1.2,-2.9 0.2,-4.1 l -26.6,-32.4 c 5.5,-8.6 9.5,-18.2 11.8,-28.5 l 41.7,-4.1 c 1.6,-0.2 2.8,-1.5 2.8,-3 v -12.3 -12.3 c 0,-1.5 -1.2,-2.79999 -2.8,-3 z m -128.8,84.5 c -38.2,0 -69.2,-31 -69.2,-69.2 0,-38.2 31,-69.2 69.2,-69.2 38.2,0 69.2,31 69.2,69.2 0,38.2 -31,69.2 -69.2,69.2 z"
     style="fill:#80bcb0"
     id="path471"
     inkscape:connector-curvature="0" />
  <path
     class="st2"
     d="m 643.20001,74.4001 c -31.7,0 -57.3,25.70001 -57.3,57.3 0,31.7 25.7,57.3 57.3,57.3 31.7,0 57.3,-25.7 57.3,-57.3 0,-31.6 -25.6,-57.3 -57.3,-57.3 z m 0,105.60001 c -26.7,0 -48.3,-21.60001 -48.3,-48.3 0,-26.7 21.6,-48.3 48.3,-48.3 26.7,0 48.3,21.6 48.3,48.3 0,26.7 -21.6,48.3 -48.3,48.3 z"
     style="fill:#80bcb0"
     id="path473"
     inkscape:connector-curvature="0" />
  <path
     class="st2"
     d="m 1485.7999,423.10011 -44.2,-4.3 c -2.4,-10.9 -6.7,-21.1 -12.5,-30.2 l 28.2,-34.3 c 1.1,-1.3 1,-3.2 -0.2,-4.3 l -9.2,-9.2 -9.2,-9.2 c -1.2,-1.20001 -3.1,-1.3 -4.3,-0.20001 l -34.3,28.20001 c -9.1,-5.8 -19.3,-10.1 -30.2,-12.5 l -4.3,-44.20001 c -0.2,-1.7 -1.6,-2.89999 -3.2,-2.89999 h -13 -13 c -1.7,0 -3.1,1.29999 -3.2,2.89999 l -4.3,44.20001 c -10.9,2.4 -21.1,6.7 -30.2,12.5 l -34.3,-28.20001 c -1.3,-1.1 -3.2,-1 -4.3,0.20001 l -9.2,9.2 -9.2,9.2 c -1.2,1.2 -1.3,3.1 -0.2,4.3 l 28.2,34.3 c -5.8,9.1 -10.1,19.29999 -12.5,30.2 l -44.2,4.3 c -1.7,0.2 -2.9,1.6 -2.9,3.2 v 13 13 c 0,1.7 1.3,3.1 2.9,3.2 l 44.2,4.3 c 2.4,10.9 6.7,21.1 12.5,30.2 l -28.2,34.3 c -1.1,1.3 -1,3.2 0.2,4.3 l 9.2,9.2 9.2,9.2 c 1.2,1.2 3.1,1.3 4.3,0.2 l 34.3,-28.2 c 9.1,5.8 19.3,10.1 30.2,12.5 l 4.3,44.2 c 0.2,1.7 1.6,2.9 3.2,2.9 h 13 13 c 1.7,0 3.1,-1.3 3.2,-2.9 l 4.3,-44.2 c 10.9,-2.4 21.1,-6.7 30.2,-12.5 l 34.3,28.2 c 1.3,1.1 3.2,1 4.3,-0.2 l 9.2,-9.2 9.2,-9.2 c 1.2,-1.20001 1.3,-3.1 0.2,-4.3 l -28.2,-34.3 c 5.8,-9.1 10.1,-19.3 12.5,-30.2 l 44.2,-4.3 c 1.7,-0.2 2.9,-1.6 2.9,-3.2 v -13 -13 c 0,-1.6 -1.2,-3 -2.9,-3.2 z m -136.3,89.5 c -40.5,0 -73.3,-32.8 -73.3,-73.3 0,-40.5 32.8,-73.3 73.3,-73.3 40.5,0 73.3,32.8 73.3,73.3 -0.1,40.5 -32.9,73.3 -73.3,73.3 z"
     style="fill:#80bcb0"
     id="path475"
     inkscape:connector-curvature="0" />
  <path
     class="st2"
     d="m 1349.4999,378.7001 c -33.5,0 -60.7,27.2 -60.7,60.7 0,33.5 27.2,60.70001 60.7,60.70001 33.5,0 60.7,-27.20001 60.7,-60.70001 -0.1,-33.6 -27.2,-60.7 -60.7,-60.7 z m 0,111.7 c -28.2,0 -51.1,-22.89999 -51.1,-51.1 0,-28.2 22.9,-51.1 51.1,-51.1 28.2,0 51.1,22.9 51.1,51.1 0,28.3 -22.9,51.1 -51.1,51.1 z"
     style="fill:#80bcb0"
     id="path477"
     inkscape:connector-curvature="0" />
  <path
     class="st2"
     d="m 1289.1999,182.00011 -19.2,-1.9 c -1.1,-4.70001 -2.9,-9.20001 -5.4,-13.1 l 12.3,-14.9 c 0.5,-0.6 0.4,-1.4 -0.1,-1.9 l -4,-4 -4,-4 c -0.5,-0.5 -1.3,-0.6 -1.9,-0.1 l -14.9,12.29999 c -4,-2.5 -8.4,-4.39999 -13.1,-5.39999 l -1.9,-19.20001 c -0.1,-0.7 -0.7,-1.29999 -1.4,-1.29999 h -5.7 -5.7 c -0.7,0 -1.3,0.5 -1.4,1.29999 l -1.9,19.20001 c -4.7,1.1 -9.2,2.89999 -13.1,5.39999 l -14.9,-12.29999 c -0.6,-0.5 -1.4,-0.4 -1.9,0.1 l -4,4 -4,4 c -0.5,0.5 -0.6,1.3 -0.1,1.9 l 12.3,14.9 c -2.5,4 -4.4,8.39999 -5.4,13.1 l -19.2,1.9 c -0.7,0.1 -1.3,0.7 -1.3,1.39999 v 5.70001 5.7 c 0,0.7 0.5,1.3 1.3,1.4 l 19.2,1.9 c 1.1,4.7 2.9,9.2 5.4,13.1 l -12.3,14.9 c -0.5,0.6 -0.4,1.4 0.1,1.9 l 4,4 4,4 c 0.5,0.5 1.3,0.6 1.9,0.1 l 14.9,-12.3 c 4,2.5 8.4,4.4 13.1,5.4 l 1.9,19.2 c 0.1,0.7 0.7,1.3 1.4,1.3 h 5.7 5.7 c 0.7,0 1.3,-0.5 1.4,-1.3 l 1.9,-19.2 c 4.7,-1.1 9.2,-2.9 13.1,-5.4 l 14.9,12.3 c 0.6,0.5 1.4,0.4 1.9,-0.1 l 4,-4 4,-4 c 0.5,-0.5 0.6,-1.3 0.1,-1.9 l -12.3,-14.9 c 2.5,-4 4.4,-8.4 5.4,-13.1 l 19.2,-1.9 c 0.7,-0.1 1.3,-0.7 1.3,-1.4 v -5.7 -5.70001 c 0,-0.7 -0.6,-1.29999 -1.3,-1.39999 z m -59.4,24.6 c -9.7,0 -17.6,-7.9 -17.6,-17.6 0,-9.70001 7.9,-17.60001 17.6,-17.60001 9.7,0 17.6,7.9 17.6,17.60001 0,9.7 -7.9,17.6 -17.6,17.6 z"
     style="fill:#80bcb0"
     id="path479"
     inkscape:connector-curvature="0" />
  <path
     class="st2"
     d="m 483.80001,270.3001 -19.2,-1.9 c -1.1,-4.7 -2.9,-9.2 -5.4,-13.1 l 12.3,-14.9 c 0.5,-0.6 0.4,-1.39999 -0.1,-1.89999 l -4,-4 -4,-4 c -0.5,-0.5 -1.3,-0.60001 -1.9,-0.10001 l -14.9,12.3 c -4,-2.5 -8.4,-4.4 -13.1,-5.4 l -1.9,-19.2 c -0.1,-0.7 -0.7,-1.3 -1.4,-1.3 h -5.7 -5.7 c -0.7,0 -1.3,0.5 -1.4,1.3 l -1.9,19.2 c -4.7,1.1 -9.2,2.9 -13.1,5.4 l -14.9,-12.3 c -0.6,-0.5 -1.4,-0.39999 -1.9,0.10001 l -4,4 -4,4 c -0.5,0.5 -0.6,1.29999 -0.1,1.89999 l 12.2,14.8 c -2.5,4 -4.4,8.4 -5.4,13.1 l -19.2,1.9 c -0.7,0.1 -1.3,0.7 -1.3,1.4 v 5.7 5.70001 c 0,0.7 0.5,1.29999 1.3,1.39999 l 19.2,1.9 c 1.1,4.70001 2.9,9.20001 5.4,13.1 l -12.3,14.9 c -0.5,0.6 -0.4,1.4 0.1,1.9 l 4,4 4,4 c 0.5,0.5 1.3,0.6 1.9,0.1 l 14.9,-12.29999 c 4,2.5 8.4,4.39999 13.1,5.39999 l 1.9,19.20001 c 0.1,0.7 0.7,1.29999 1.4,1.29999 h 5.7 5.7 c 0.7,0 1.3,-0.5 1.4,-1.29999 l 1.9,-19.20001 c 4.7,-1.1 9.2,-2.89999 13.1,-5.39999 l 14.9,12.29999 c 0.6,0.5 1.4,0.4 1.9,-0.1 l 4,-4 4,-4 c 0.5,-0.5 0.6,-1.3 0.1,-1.9 l -12.3,-14.9 c 2.5,-4 4.4,-8.39999 5.4,-13.1 l 19.2,-1.9 c 0.7,-0.1 1.3,-0.7 1.3,-1.39999 v -5.70001 -5.7 c 0.1,-0.7 -0.4,-1.3 -1.2,-1.3 z m -59.4,24.6 c -9.7,0 -17.6,-7.89999 -17.6,-17.6 0,-9.7 7.9,-17.6 17.6,-17.6 9.7,0 17.6,7.9 17.6,17.6 0,9.70001 -7.9,17.6 -17.6,17.6 z"
     style="fill:#80bcb0"
     id="path481"
     inkscape:connector-curvature="0" />
  <g
     id="g635"
     transform="translate(-424.29999,-241.8)">
    <g
       id="g493">
      <path
         class="st3"
         d="m 794.8,1625 c 0,39.8 32.3,72.1 72.1,72.1 h 36.5 c 39.8,0 72.1,-32.3 72.1,-72.1 v -60.8 H 794.8 Z"
         style="fill:#ffffe7"
         id="path483"
         inkscape:connector-curvature="0" />
      <path
         class="st4"
         d="m 956.8,1613.2 c 0,39.8 -32.3,72.1 -72.1,72.1 h -36.5 c -10.2,0 -19.9,-2.1 -28.7,-6 12.7,11.1 29.3,17.8 47.4,17.8 h 36.5 c 39.8,0 72.1,-32.3 72.1,-72.1 v -60.8 h -18.7 z"
         style="fill:#edecd6"
         id="path485"
         inkscape:connector-curvature="0" />
      <path
         class="st3"
         d="m 718.8,1711.5 h 332.7 c 10.6,0 19.2,-8.6 19.2,-19.2 H 699.5 c 0,10.5 8.7,19.2 19.3,19.2 z"
         style="fill:#ffffe7"
         id="path487"
         inkscape:connector-curvature="0" />
      <path
         class="st4"
         d="M 1051.5,1701.8 H 718.8 c -7.1,0 -13.3,-3.9 -16.6,-9.6 h -2.6 c 0,10.6 8.6,19.2 19.2,19.2 h 332.7 c 10.6,0 19.2,-8.6 19.2,-19.2 h -2.6 c -3.3,5.8 -9.5,9.6 -16.6,9.6 z"
         style="fill:#edecd6"
         id="path489"
         inkscape:connector-curvature="0" />
      <path
         class="st3"
         d="m 776.2,1586.9 h 18.6 c 6.3,0 11.4,-5.1 11.4,-11.4 0,-6.3 -5.1,-11.4 -11.4,-11.4 h -18.6 c -13.4,0 -24.4,10.9 -24.4,24.4 v 13.2 c 0,22.3 18.2,40.5 40.5,40.5 h 2.5 c 6.3,0 11.4,-5.1 11.4,-11.4 0,-6.3 -5.1,-11.4 -11.4,-11.4 h -2.5 c -9.8,0 -17.8,-8 -17.8,-17.8 v -13.2 c 0,-0.7 0.8,-1.5 1.7,-1.5 z"
         style="fill:#ffffe7"
         id="path491"
         inkscape:connector-curvature="0" />
    </g>
    <g
       id="g505">
      <g
         id="g501">
        <path
           class="st5"
           d="M 2407.4,1711.5 H 521.5 c -21.2,0 -38.4,19.5 -38.4,43.5 0,24 17.2,43.5 38.4,43.5 h 1885.9 c 21.2,0 38.4,-19.5 38.4,-43.5 0.1,-24.1 -17.1,-43.5 -38.4,-43.5 z"
           style="fill:#d59e4c"
           id="path495"
           inkscape:connector-curvature="0" />
        <path
           d="m 545,1798.4 h 1838.9 v 201.8 H 545 Z"
           class="st6"
           style="fill:#cabfa3"
           id="path497"
           inkscape:connector-curvature="0" />
        <path
           d="m 545,1798.4 h 1838.9 v 29 H 545 Z"
           class="st7"
           style="fill:#968e7c"
           id="path499"
           inkscape:connector-curvature="0" />
      </g>
      <path
         class="st8"
         d="M 2407.4,1711.5 H 521.5 c -21.2,0 -38.4,19.5 -38.4,43.5 0,6.5 1.3,12.6 3.5,18.2 0,-0.1 0,-0.2 0,-0.3 v 0 c 0,-24 17.2,-43.5 38.4,-43.5 h 1885.9 c 15.5,0 28.8,10.4 34.9,25.3 -0.1,-23.9 -17.2,-43.2 -38.4,-43.2 z"
         style="fill:#ffce7f"
         id="path503"
         inkscape:connector-curvature="0" />
    </g>
    <g
       id="g561">
      <path
         d="m 1414.3,1162.6 h 91.9001 v 125.1 H 1414.3 Z"
         class="st9"
         style="fill:#db7a49"
         id="path507"
         inkscape:connector-curvature="0" />
      <path
         class="st10"
         d="m 1636.5,1058.6 c 0,0 -9.9,-19.3 -13.9,7.5 -4,26.8 30.4,43.2 30.4,43.2 -23.4,-26.3 -16.5,-50.7 -16.5,-50.7 z"
         style="fill:#a04935"
         id="path509"
         inkscape:connector-curvature="0" />
      <path
         class="st11"
         d="m 1607.8,1096.4 v 0 c -14,19.9 -29.3,37.8 -45.1,53.3 v 0 c 0,0 31.9,19.4 -10.6,159.4 -42.5,140 97.9,235.6 97.9,235.6 -43,-119.2 -22.2,-123.3 40.2,-248.1 62.4,-124.8 -82.4,-200.2 -82.4,-200.2 z"
         style="fill:#af5b41"
         id="path511"
         inkscape:connector-curvature="0" />
      <path
         class="st10"
         d="m 1607.8,1096.4 v 0 c -14,19.9 -29.3,37.8 -45.1,53.3 v 0 c 0,0 31.9,19.4 -10.6,159.4 -6.2,20.6 -8.5,40.2 -7.9,58.7 v 0 c 16.2,-99.7 41.1,-109.1 88.2,-159.1 26,-27.6 19,-63.8 7.4,-90.6 -17.6,-14.2 -32,-21.7 -32,-21.7 z"
         style="fill:#a04935"
         id="path513"
         inkscape:connector-curvature="0" />
      <path
         class="st12"
         d="m 1462.8,789 c -97.4,0 -186.7,63.5 -186.7,177.7 0,60.2 29.1,119.7 68.6,163.9 61.5,68.8 174.7,68.8 236.2,0 39.5,-44.2 68.6,-103.8 68.6,-163.9 C 1649.6,852.5 1560.2,789 1462.8,789 Z"
         style="fill:#fd965b"
         id="path515"
         inkscape:connector-curvature="0" />
      <path
         d="m 1689.2,1012 a 46.599998,46.599998 0 0 1 -46.6,46.6 46.599998,46.599998 0 0 1 -46.6,-46.6 46.599998,46.599998 0 0 1 46.6,-46.6 46.599998,46.599998 0 0 1 46.6,46.6 z"
         class="st12"
         style="fill:#fd965b"
         id="path517"
         inkscape:connector-curvature="0" />
      <path
         d="m 1329.7,1012 a 46.599998,46.599998 0 0 1 -46.6,46.6 46.599998,46.599998 0 0 1 -46.6,-46.6 46.599998,46.599998 0 0 1 46.6,-46.6 46.599998,46.599998 0 0 1 46.6,46.6 z"
         class="st12"
         style="fill:#fd965b"
         id="path519"
         inkscape:connector-curvature="0" />
      <path
         class="st11"
         d="m 1603.8,800.1 c -0.1,-0.1 -0.2,-0.2 -0.3,-0.3 -31.3,-33.2 -71.5,-54.5 -115.1,-61.3 -0.3,-0.1 -0.7,-0.1 -1,-0.1 -3,-0.5 -6.1,-0.9 -9.2,-1.2 -1.2,-0.1 -2.4,-0.2 -3.7,-0.3 -2.2,-0.2 -4.4,-0.4 -6.6,-0.5 -3.4,-0.2 -6.9,-0.3 -10.4,-0.3 -2.9,0 -5.8,0.1 -8.6,0.2 -1,0 -2.1,0.1 -3.1,0.1 -2.2,0.1 -4.3,0.3 -6.5,0.5 -1.8,0.2 -3.7,0.4 -5.5,0.6 0,0 -0.1,0 -0.1,0 0,0 0,0 0,0 -101.1,12.2 -185.4,101.6 -187.9,237 -9.5,94.7 47.1,207.7 47.1,207.7 -33.7,-82.4 -3.8,-189.9 -3.8,-189.9 8.8,-16.9 24.2,-29.5 42.6,-34.7 30.1,-8.6 61.7,-20.1 93.6,-34.6 33.4,-15.2 64.2,-32.2 91.5,-50.1 50.9,58.1 108.2,95.5 152.4,101.9 -1.1,-73.4 -26.4,-133.2 -65.4,-174.7 0,0 0,0 0,0 z"
         style="fill:#af5b41"
         id="path521"
         inkscape:connector-curvature="0" />
      <path
         class="st11"
         d="m 1696.3,1222.3 -17.4,-0.1 c 0,0 -7.5,20.6 15.1,60.4 22.6,39.8 53.2,28.3 53.2,28.3 -38,-9.1 -50.9,-88.6 -50.9,-88.6 z"
         style="fill:#af5b41"
         id="path523"
         inkscape:connector-curvature="0" />
      <g
         id="g531">
        <path
           class="st13"
           d="m 1642.4,952.2 c -10.9,-2.4 -45.7,-9.1 -83.9,-4.3 -46.2,5.8 -77.6,13.7 -95.7,11.9 -18.1,1.8 -49.5,-6.1 -95.7,-11.9 -38.2,-4.8 -73,1.9 -83.9,4.3 -2.1,0.5 -3.5,2.3 -3.5,4.4 v 15 c 0,1.8 1,3.4 2.7,4.1 13.6,5.9 14.8,38.7 18.4,62.4 3.8,25.2 35.1,30 67.6,30.1 21.2,0.1 37.5,-3.2 49.3,-8.7 24.1,-11.1 28.2,-69.2 30.5,-74.4 2.3,-5.2 14.6,-4.1 14.6,-4.1 0,0 12.3,-1.2 14.6,4.1 2.3,5.3 6.4,63.3 30.5,74.4 11.8,5.4 28.2,8.8 49.3,8.7 32.5,-0.2 63.8,-5 67.6,-30.1 3.6,-23.7 4.8,-56.5 18.4,-62.4 1.6,-0.7 2.7,-2.4 2.7,-4.1 v -15 c 0.1,-2.1 -1.4,-3.9 -3.5,-4.4 z"
           style="fill:#2b6668"
           id="path525"
           inkscape:connector-curvature="0" />
        <path
           class="st12"
           d="m 1407.5,963.2 c -26.8,-4.5 -50.6,-6.3 -57.1,-6.7 -0.8,-0.1 -1.6,-0.1 -2.4,-0.2 -5.6,-0.4 -41.3,-1.7 -40.5,37.7 0.9,42.7 4.1,59.1 32.2,63.2 28.1,4.1 48.3,3.2 62.9,-3.8 14.6,-7 22.2,-12.9 29.5,-43.3 7.3,-30.4 4.2,-42 -24.6,-46.9 z"
           style="fill:#fd965b"
           id="path527"
           inkscape:connector-curvature="0" />
        <path
           class="st12"
           d="m 1577.7,956.4 c -0.8,0.1 -1.6,0.1 -2.4,0.2 -6.5,0.4 -30.3,2.1 -57.1,6.7 -28.7,4.9 -31.9,16.5 -24.6,46.9 7.3,30.4 14.9,36.3 29.5,43.3 14.6,7 34.8,7.9 62.9,3.8 28.1,-4.1 31.3,-20.5 32.2,-63.2 0.8,-39.5 -34.9,-38.2 -40.5,-37.7 z"
           style="fill:#fd965b"
           id="path529"
           inkscape:connector-curvature="0" />
      </g>
      <path
         class="st14"
         d="m 1502,1224.1 c -18.4,37.4 -72.9,34.3 -86.6,-5.1 -0.4,-1.3 -0.7,-2.1 -0.7,-2.4 l -169.8,52 V 1696 h 215.3 220.5 v -425.8 l -175,-53.6 z"
         style="fill:#335352"
         id="path533"
         inkscape:connector-curvature="0" />
      <path
         class="st12"
         d="m 1286.1,1547.8 h -186.6 c -1.3,0 -3.8,0 -5.3,-3.4 -0.9,-2.1 -0.7,-3.6 -0.2,-4.6 l 199.6,-174.1 c 23.3,-20.3 25.7,-55.7 5.4,-79 -20.3,-23.3 -55.7,-25.7 -79,-5.4 l -203.6,177.5 c -1.8,1.6 -3.5,3.3 -5.1,5 -31.2,35.2 -38.6,83.6 -19.3,126.5 19.3,42.9 60.5,69.5 107.5,69.5 h 186.6 c 30.9,0 56,-25.1 56,-56 0,-31 -25,-56 -56,-56 z"
         style="fill:#fd965b"
         id="path535"
         inkscape:connector-curvature="0" />
      <path
         class="st14"
         d="m 1220,1281.2 -149.7,130.6 c 12.2,28.8 35.8,62.3 81.5,77.5 l 141.8,-123.6 c 23.3,-20.3 25.7,-55.7 5.4,-79 -20.3,-23.4 -55.7,-25.8 -79,-5.5 z"
         style="fill:#335352"
         id="path537"
         inkscape:connector-curvature="0" />
      <path
         class="st12"
         d="m 1909.2,1458.7 -203.6,-177.5 c -23.3,-20.3 -58.7,-17.9 -79,5.4 -20.3,23.3 -17.9,58.7 5.4,79 l 199.6,174.1 c 0.5,1.1 0.7,2.6 -0.2,4.6 -1.5,3.4 -4,3.4 -5.3,3.4 h -186.6 c -30.9,0 -56,25.1 -56,56 0,30.9 25.1,56 56,56 h 186.6 c 47,0 88.2,-26.6 107.5,-69.5 19.3,-42.9 11.9,-91.3 -19.3,-126.5 -1.6,-1.7 -3.3,-3.4 -5.1,-5 z"
         style="fill:#fd965b"
         id="path539"
         inkscape:connector-curvature="0" />
      <path
         class="st14"
         d="m 1626.7,1286.6 c -20.3,23.3 -17.9,58.7 5.4,79 l 141.8,123.6 c 45.7,-15.2 69.4,-48.7 81.5,-77.5 l -149.7,-130.6 c -23.3,-20.2 -58.7,-17.8 -79,5.5 z"
         style="fill:#335352"
         id="path541"
         inkscape:connector-curvature="0" />
      <g
         id="g551">
        <path
           class="st3"
           d="m 1795.1,1270.5 h -661.3 c -12.8,0 -23.3,10.4 -23.3,23.3 v 417.7 h 707.8 v -417.7 c 0.1,-12.9 -10.3,-23.3 -23.2,-23.3 z"
           style="fill:#ffffe7"
           id="path543"
           inkscape:connector-curvature="0" />
        <path
           d="m 1110.6,1607.2 v 104.3 h 707.8 v -349 z"
           class="st4"
           style="fill:#edecd6"
           id="path545"
           inkscape:connector-curvature="0" />
        <path
           d="m 1499.1,1491 a 34.599998,34.599998 0 0 1 -34.6,34.6 34.599998,34.599998 0 0 1 -34.6,-34.6 34.599998,34.599998 0 0 1 34.6,-34.6 34.599998,34.599998 0 0 1 34.6,34.6 z"
           class="st15"
           style="fill:#8d978f"
           id="path547"
           inkscape:connector-curvature="0" />
        <path
           class="st16"
           d="m 1493.6,1475.9 c 0,19.1 -15.5,34.6 -34.6,34.6 -12,0 -22.6,-6.1 -28.8,-15.4 2,17.2 16.7,30.5 34.4,30.5 19.1,0 34.6,-15.5 34.6,-34.6 0,-7.1 -2.1,-13.7 -5.8,-19.2 0.1,1.3 0.2,2.7 0.2,4.1 z"
           style="fill:#7e8780"
           id="path549"
           inkscape:connector-curvature="0" />
      </g>
      <path
         class="st17"
         d="m 1371.5,1021.5 c -11.5,0 -21.2,-7.7 -24.2,-18.3 -0.6,2.2 -1,4.5 -1,6.9 0,13.9 11.3,25.2 25.2,25.2 13.9,0 25.2,-11.3 25.2,-25.2 0,-2.4 -0.3,-4.7 -1,-6.9 -3,10.5 -12.7,18.3 -24.2,18.3 z"
         style="fill:#914c3a"
         id="path553"
         inkscape:connector-curvature="0" />
      <path
         class="st17"
         d="m 1554.2,1021.5 c -11.5,0 -21.2,-7.7 -24.2,-18.3 -0.6,2.2 -1,4.5 -1,6.9 0,13.9 11.3,25.2 25.2,25.2 13.9,0 25.2,-11.3 25.2,-25.2 0,-2.4 -0.3,-4.7 -1,-6.9 -2.9,10.5 -12.7,18.3 -24.2,18.3 z"
         style="fill:#914c3a"
         id="path555"
         inkscape:connector-curvature="0" />
      <path
         d="m 1477.9,1122.1 a 15.1,22.6 0 0 1 -15.1,22.6 15.1,22.6 0 0 1 -15.1,-22.6 15.1,22.6 0 0 1 15.1,-22.6 15.1,22.6 0 0 1 15.1,22.6 z"
         class="st17"
         style="fill:#914c3a"
         id="path557"
         inkscape:connector-curvature="0" />
      <path
         class="st3"
         d="m 1462.8,1099.5 c -6.6,0 -12.2,6.4 -14.2,15.2 h 28.5 c -2.1,-8.9 -7.7,-15.2 -14.3,-15.2 z"
         style="fill:#ffffe7"
         id="path559"
         inkscape:connector-curvature="0" />
    </g>
    <g
       id="g605">
      <g
         id="g603">
        <path
           d="m 1927.4,1436.2 h 509.3 v 30.4 h -509.3 z"
           transform="matrix(0.2887,-0.9574,0.9574,0.2887,162.5155,3121.5977)"
           class="st18"
           style="fill:#89968c"
           id="path563"
           inkscape:connector-curvature="0" />
        <path
           d="m 2123.2,888.59998 h 30.4 V 1257.1 h -30.4 z"
           transform="matrix(0.7643,-0.6449,0.6449,0.7643,-187.8347,1631.9121)"
           class="st18"
           style="fill:#89968c"
           id="path565"
           inkscape:connector-curvature="0" />
        <path
           d="m 2277.7001,1209.9 a 25.6,25.6 0 0 1 -25.6,25.6 25.6,25.6 0 0 1 -25.6,-25.6 25.6,25.6 0 0 1 25.6,-25.6 25.6,25.6 0 0 1 25.6,25.6 z"
           class="st19"
           style="fill:#97a098"
           id="path567"
           inkscape:connector-curvature="0" />
        <path
           class="st20"
           d="m 2230.1,1239.6 c 4.7,5.1 11.4,8.3 18.8,8.3 4,0 7.8,-1 11.2,-2.6 l 10,-33.2 -29.1,-8.8 z"
           style="fill:#717f74"
           id="path569"
           inkscape:connector-curvature="0" />
        <path
           class="st21"
           d="m 1929.6,817.4 c -1.3,-1.6 -3.8,-1.8 -5.4,-0.5 l -1.1,0.9 c -1.6,1.3 -1.8,3.8 -0.5,5.4 l 104.2,125.3 c 1.3,1.6 3.8,1.8 5.4,0.5 l 1.1,-0.9 c 1.6,-1.3 1.8,-3.8 0.5,-5.4 z"
           style="fill:#b6bab6"
           id="path571"
           inkscape:connector-curvature="0" />
        <path
           class="st22"
           d="m 1924.2,825.1 -143,75.2 c -5.8,3.1 -7.4,10.8 -3.2,15.8 l 65.4,78.7 65.4,78.7 c 4.2,5.1 12.1,5 16.1,-0.2 L 2025,946.5 1974.5,885.8 Z"
           style="fill:#9ba59d"
           id="path573"
           inkscape:connector-curvature="0" />
        <g
           id="g579">
          <path
             class="st20"
             d="m 2028.9,919.7 -15.3,12.9 29.1,35 c 1.6,1.9 4.5,2.2 6.4,0.6 1.9,-1.6 2.2,-4.5 0.6,-6.4 l -2.3,-2.8 8.6,-7.1 z"
             style="fill:#717f74"
             id="path575"
             inkscape:connector-curvature="0" />
          <path
             d="m 2005.7,939.29999 29.5,35 6.4,-8.09998 -27.9,-33.60003 z"
             class="st20"
             style="fill:#717f74"
             id="path577"
             inkscape:connector-curvature="0" />
        </g>
        <path
           d="m 2096.8,1681.5 v 1.3 h 31.4 l 13.3,-44 h -31.8 z"
           class="st20"
           style="fill:#717f74"
           id="path581"
           inkscape:connector-curvature="0" />
        <g
           id="g585">
          <path
             class="st18"
             d="m 2116.6,1654.1 c -61.4,0 -115.4,22.8 -146.4,57.3 H 2263 c -31,-34.4 -85,-57.3 -146.4,-57.3 z"
             style="fill:#89968c"
             id="path583"
             inkscape:connector-curvature="0" />
        </g>
        <g
           id="g589">
          <path
             class="st23"
             d="m 2033.8,1669.1 c 17.8,10.9 48.2,18.1 82.7,18.1 34.5,0 64.9,-7.2 82.7,-18.1 -24.6,-9.6 -52.8,-15 -82.7,-15 -29.9,0 -58.1,5.5 -82.7,15 z"
             style="fill:#a3afa5"
             id="path587"
             inkscape:connector-curvature="0" />
        </g>
        <path
           d="m 2277.7001,1209.9 a 25.6,25.6 0 0 1 -25.6,25.6 25.6,25.6 0 0 1 -25.6,-25.6 25.6,25.6 0 0 1 25.6,-25.6 25.6,25.6 0 0 1 25.6,25.6 z"
           class="st19"
           style="fill:#97a098"
           id="path591"
           inkscape:connector-curvature="0" />
        <path
           class="st18"
           d="m 1988.7,822.2 c -13.1,-15.8 -36.5,-17.9 -52.3,-4.8 l -4,3.3 98.6,118.6 4,-3.3 c 15.8,-13.1 17.9,-36.5 4.8,-52.3 z"
           style="fill:#89968c"
           id="path593"
           inkscape:connector-curvature="0" />
        <path
           class="st22"
           d="m 1936.4,817.4 -4,3.3 23.6,28.4 4,-3.3 c 10.5,-8.8 15,-22.1 12.9,-34.7 -12.1,-4.4 -26,-2.5 -36.5,6.3 z"
           style="fill:#9ba59d"
           id="path595"
           inkscape:connector-curvature="0" />
        <path
           class="st22"
           d="m 1924.2,825.1 -143,75.2 c -5.8,3.1 -7.4,10.8 -3.2,15.8 l 65.4,78.7 65.4,78.7 c 4.2,5.1 12.1,5 16.1,-0.2 L 2025,946.5 1974.5,885.8 Z"
           style="fill:#9ba59d"
           id="path597"
           inkscape:connector-curvature="0" />
        <path
           class="st21"
           d="m 1937.9,827.5 c -1.3,-1.6 -3.8,-1.8 -5.4,-0.5 l -1.1,0.9 c -1.6,1.3 -1.8,3.8 -0.5,5.4 l 104.2,125.3 c 1.3,1.6 3.8,1.8 5.4,0.5 l 1.1,-0.9 c 1.6,-1.3 1.8,-3.8 0.5,-5.4 z"
           style="fill:#b6bab6"
           id="path599"
           inkscape:connector-curvature="0" />
        <path
           class="st24"
           d="m 1776.3,912.8 c 0.4,1.2 1,2.3 1.8,3.3 l 65.4,78.7 65.4,78.7 c 4.2,5.1 12.1,5 16.1,-0.2 l 100,-126.7 -77.9,-93.7 z"
           style="fill:#8f9991"
           id="path601"
           inkscape:connector-curvature="0" />
      </g>
    </g>
    <g
       id="g633">
      <path
         class="st25"
         d="m 2010.5,1579.7 h -67.2 -64.2 c -5.5,0 -9.6,4.9 -8.6,10.3 l 22,121.4 h 50.8 50.8 l 22.5,-124.4 c 0.6,-3.8 -2.3,-7.3 -6.1,-7.3 z"
         style="fill:#a07457"
         id="path607"
         inkscape:connector-curvature="0" />
      <path
         class="st26"
         d="m 1876,1579.7 c -3.9,0 -6.8,3.5 -6.1,7.3 l 20.9,115.6 h 40 39 c 6.8,0 12.7,-4.9 13.9,-11.6 l 20.1,-111.2 h -60.6 -67.2 z"
         style="fill:#b78b68"
         id="path609"
         inkscape:connector-curvature="0" />
      <path
         class="st27"
         d="m 1943.5,1375.6 c -13.5,10.6 -22.2,27 -22.2,45.5 0,18.5 8.7,34.9 22.2,45.5 13.5,-10.6 22.2,-27 22.2,-45.5 0,-18.5 -8.7,-35 -22.2,-45.5 z"
         style="fill:#7d966c"
         id="path611"
         inkscape:connector-curvature="0" />
      <path
         class="st28"
         d="m 1943.5,1458 c -12.5,-9.7 -20.8,-24.5 -22,-41.2 -0.1,1.4 -0.2,2.8 -0.2,4.2 0,18.5 8.7,34.9 22.2,45.5 13.5,-10.6 22.2,-27 22.2,-45.5 0,-1.4 -0.1,-2.8 -0.2,-4.2 -1.2,16.7 -9.6,31.5 -22,41.2 z"
         style="fill:#667c55"
         id="path613"
         inkscape:connector-curvature="0" />
      <path
         class="st27"
         d="m 1965.7,1470 c -12.5,8.9 -19.5,22.6 -20.2,36.8 13.6,4.1 28.9,2.1 41.4,-6.8 12.5,-8.9 19.5,-22.6 20.2,-36.8 -13.6,-4 -28.9,-2 -41.4,6.8 z"
         style="fill:#7d966c"
         id="path615"
         inkscape:connector-curvature="0" />
      <path
         class="st28"
         d="m 1987.3,1493.5 c -11.9,10.6 -27.2,14.8 -41.8,13.1 0,0.1 0,0.1 0,0.2 13.6,4.1 28.9,2.1 41.4,-6.8 12.5,-8.9 19.5,-22.6 20.2,-36.8 -0.8,-0.2 -1.6,-0.5 -2.5,-0.7 -2,11.6 -7.8,22.6 -17.3,31 z"
         style="fill:#667c55"
         id="path617"
         inkscape:connector-curvature="0" />
      <path
         class="st27"
         d="m 1971.6,1527.5 c -14.2,5.7 -24.2,17.5 -28.1,31.2 12.3,7.1 27.7,8.7 41.9,3 14.2,-5.7 24.2,-17.5 28.1,-31.2 -12.4,-7.1 -27.7,-8.7 -41.9,-3 z"
         style="fill:#7d966c"
         id="path619"
         inkscape:connector-curvature="0" />
      <path
         class="st28"
         d="m 1987.3,1555.4 c -14,7.5 -29.9,8.2 -43.7,3.1 0,0.1 0,0.1 -0.1,0.2 12.3,7.1 27.7,8.7 41.9,3 14.2,-5.7 24.2,-17.5 28.1,-31.2 -0.7,-0.4 -1.5,-0.8 -2.3,-1.2 -4.6,10.8 -12.8,20.1 -23.9,26.1 z"
         style="fill:#667c55"
         id="path621"
         inkscape:connector-curvature="0" />
      <path
         class="st27"
         d="m 1920.8,1470 c -12.5,-8.9 -27.8,-10.8 -41.4,-6.8 0.7,14.2 7.6,28 20.2,36.8 12.5,8.9 27.8,10.8 41.4,6.8 -0.7,-14.2 -7.7,-27.9 -20.2,-36.8 z"
         style="fill:#7d966c"
         id="path623"
         inkscape:connector-curvature="0" />
      <path
         class="st28"
         d="m 1899.1,1493.5 c -9.5,-8.4 -15.2,-19.4 -17.3,-30.9 -0.8,0.2 -1.7,0.4 -2.5,0.7 0.7,14.2 7.6,28 20.2,36.8 12.5,8.9 27.8,10.8 41.4,6.8 0,-0.1 0,-0.1 0,-0.2 -14.6,1.6 -29.9,-2.6 -41.8,-13.2 z"
         style="fill:#667c55"
         id="path625"
         inkscape:connector-curvature="0" />
      <path
         class="st27"
         d="m 1914.9,1527.5 c -14.2,-5.7 -29.6,-4.1 -41.9,3 3.9,13.7 13.9,25.4 28.1,31.2 14.2,5.7 29.6,4.1 41.9,-3 -4,-13.7 -13.9,-25.4 -28.1,-31.2 z"
         style="fill:#7d966c"
         id="path627"
         inkscape:connector-curvature="0" />
      <path
         class="st28"
         d="m 1899.2,1555.4 c -11.1,-6 -19.3,-15.3 -23.9,-26.1 -0.8,0.4 -1.5,0.8 -2.3,1.2 3.9,13.7 13.9,25.4 28.1,31.2 14.2,5.7 29.6,4.1 41.9,-3 0,-0.1 0,-0.1 -0.1,-0.2 -13.8,5.1 -29.7,4.4 -43.7,-3.1 z"
         style="fill:#667c55"
         id="path629"
         inkscape:connector-curvature="0" />
      <path
         d="m 1940.2,1459.2 h 6.7 v 120.5 h -6.7 z"
         class="st28"
         style="fill:#667c55"
         id="path631"
         inkscape:connector-curvature="0" />
    </g>
  </g>
  <path
     class="st2"
     d="m 1944.3999,228.8001 h -373.2 c -5.7,0 -10.3,4.6 -10.3,10.3 v 242.4 c 0,5.7 4.6,10.3 10.3,10.3 h 373.2 c 5.7,0 10.3,-4.6 10.3,-10.3 v -242.5 c -0.1,-5.6 -4.7,-10.2 -10.3,-10.2 z"
     style="fill:#80bcb0"
     id="path637"
     inkscape:connector-curvature="0" />
  <path
     class="st29"
     d="m 1933.9999,273.10011 h -352.4 c -4.2,0 -7.6,3.4 -7.6,7.6 v 190.4 c 0,4.2 3.4,7.6 7.6,7.6 h 352.4 c 4.2,0 7.6,-3.4 7.6,-7.6 v -190.4 c -0.1,-4.2 -3.4,-7.6 -7.6,-7.6 z"
     style="fill:#cef4ec"
     id="path639"
     inkscape:connector-curvature="0" />
  <path
     d="m 1865.7998,253.60011 a 7.7,7.7 0 0 1 -7.7,7.7 7.7,7.7 0 0 1 -7.7,-7.7 7.7,7.7 0 0 1 7.7,-7.70001 7.7,7.7 0 0 1 7.7,7.70001 z"
     class="st12"
     style="fill:#fd965b"
     id="path641"
     inkscape:connector-curvature="0" />
  <path
     d="m 1894.0999,253.60011 a 7.7,7.7 0 0 1 -7.7,7.7 7.7,7.7 0 0 1 -7.7,-7.7 7.7,7.7 0 0 1 7.7,-7.70001 7.7,7.7 0 0 1 7.7,7.70001 z"
     class="st27"
     style="fill:#7d966c"
     id="path643"
     inkscape:connector-curvature="0" />
  <path
     d="m 1922.3999,253.60011 a 7.7,7.7 0 0 1 -7.7,7.7 7.7,7.7 0 0 1 -7.7,-7.7 7.7,7.7 0 0 1 7.7,-7.70001 7.7,7.7 0 0 1 7.7,7.70001 z"
     class="st24"
     style="fill:#8f9991"
     id="path645"
     inkscape:connector-curvature="0" />
  <path
     class="st24"
     d="m 1733.4999,299.00011 h -125.5 c -2.4,0 -4.4,2 -4.4,4.39999 0,2.4 2,4.4 4.4,4.4 h 125.5 c 2.4,0 4.4,-2 4.4,-4.4 0,-2.39999 -2,-4.39999 -4.4,-4.39999 z"
     style="fill:#8f9991"
     id="path647"
     inkscape:connector-curvature="0" />
  <path
     class="st27"
     d="m 1908.1999,299.00011 h -126.9 c -2,0 -3.7,1.6 -3.7,3.7 v 1.4 c 0,2 1.6,3.7 3.7,3.7 h 126.9 c 2,0 3.7,-1.6 3.7,-3.7 v -1.4 c 0,-2 -1.6,-3.7 -3.7,-3.7 z"
     style="fill:#7d966c"
     id="path649"
     inkscape:connector-curvature="0" />
  <path
     class="st24"
     d="m 1733.4999,328.00011 h -125.5 c -2.4,0 -4.4,2 -4.4,4.39999 0,2.4 2,4.4 4.4,4.4 h 125.5 c 2.4,0 4.4,-2 4.4,-4.4 0,-2.39999 -2,-4.39999 -4.4,-4.39999 z"
     style="fill:#8f9991"
     id="path651"
     inkscape:connector-curvature="0" />
  <path
     class="st27"
     d="m 1908.1999,328.00011 h -126.9 c -2,0 -3.7,1.6 -3.7,3.7 v 1.4 c 0,2 1.6,3.7 3.7,3.7 h 126.9 c 2,0 3.7,-1.6 3.7,-3.7 v -1.4 c 0,-2 -1.6,-3.7 -3.7,-3.7 z"
     style="fill:#7d966c"
     id="path653"
     inkscape:connector-curvature="0" />
  <path
     class="st24"
     d="m 1733.4999,357.00011 h -125.5 c -2.4,0 -4.4,2 -4.4,4.39999 0,2.4 2,4.4 4.4,4.4 h 125.5 c 2.4,0 4.4,-2 4.4,-4.4 0,-2.39999 -2,-4.39999 -4.4,-4.39999 z"
     style="fill:#8f9991"
     id="path655"
     inkscape:connector-curvature="0" />
  <path
     class="st27"
     d="m 1908.1999,357.00011 h -126.9 c -2,0 -3.7,1.6 -3.7,3.7 v 1.4 c 0,2 1.6,3.7 3.7,3.7 h 126.9 c 2,0 3.7,-1.6 3.7,-3.7 v -1.4 c 0,-2 -1.6,-3.7 -3.7,-3.7 z"
     style="fill:#7d966c"
     id="path657"
     inkscape:connector-curvature="0" />
  <path
     class="st12"
     d="m 1733.4999,386.00011 h -125.5 c -2.4,0 -4.4,2 -4.4,4.39999 0,2.4 2,4.4 4.4,4.4 h 125.5 c 2.4,0 4.4,-2 4.4,-4.4 0,-2.39999 -2,-4.39999 -4.4,-4.39999 z"
     style="fill:#fd965b"
     id="path659"
     inkscape:connector-curvature="0" />
  <path
     class="st24"
     d="m 1908.1999,386.00011 h -126.9 c -2,0 -3.7,1.6 -3.7,3.7 v 1.4 c 0,2 1.6,3.7 3.7,3.7 h 126.9 c 2,0 3.7,-1.6 3.7,-3.7 v -1.4 c 0,-2.1 -1.6,-3.7 -3.7,-3.7 z"
     style="fill:#8f9991"
     id="path661"
     inkscape:connector-curvature="0" />
  <path
     class="st12"
     d="m 1733.4999,415.00011 h -125.5 c -2.4,0 -4.4,2 -4.4,4.39999 0,2.4 2,4.4 4.4,4.4 h 125.5 c 2.4,0 4.4,-2 4.4,-4.4 0,-2.39999 -2,-4.39999 -4.4,-4.39999 z"
     style="fill:#fd965b"
     id="path663"
     inkscape:connector-curvature="0" />
  <path
     class="st24"
     d="m 1908.1999,415.00011 h -126.9 c -2,0 -3.7,1.6 -3.7,3.7 v 1.4 c 0,2 1.6,3.7 3.7,3.7 h 126.9 c 2,0 3.7,-1.6 3.7,-3.7 v -1.4 c 0,-2.1 -1.6,-3.7 -3.7,-3.7 z"
     style="fill:#8f9991"
     id="path665"
     inkscape:connector-curvature="0" />
  <path
     class="st12"
     d="m 1733.4999,444.00011 h -125.5 c -2.4,0 -4.4,2 -4.4,4.39999 0,2.4 2,4.4 4.4,4.4 h 125.5 c 2.4,0 4.4,-2 4.4,-4.4 0,-2.39999 -2,-4.39999 -4.4,-4.39999 z"
     style="fill:#fd965b"
     id="path667"
     inkscape:connector-curvature="0" />
  <path
     class="st24"
     d="m 1908.1999,444.00011 h -126.9 c -2,0 -3.7,1.6 -3.7,3.7 v 1.4 c 0,2 1.6,3.7 3.7,3.7 h 126.9 c 2,0 3.7,-1.6 3.7,-3.7 v -1.4 c 0,-2.1 -1.6,-3.7 -3.7,-3.7 z"
     style="fill:#8f9991"
     id="path669"
     inkscape:connector-curvature="0" />
  <path
     class="st2"
     d="m 550.40001,435.50011 h -373.1 c -5.7,0 -10.3,4.6 -10.3,10.29999 v 242.4 c 0,5.7 4.6,10.3 10.3,10.3 h 373.2 c 5.7,0 10.3,-4.6 10.3,-10.3 v -242.4 c -0.1,-5.7 -4.7,-10.29999 -10.4,-10.29999 z"
     style="fill:#80bcb0"
     id="path671"
     inkscape:connector-curvature="0" />
  <path
     class="st29"
     d="m 540.00001,479.9001 h -352.4 c -4.2,0 -7.6,3.4 -7.6,7.60001 V 677.9001 c 0,4.20001 3.4,7.60001 7.6,7.60001 h 352.4 c 4.2,0 7.6,-3.4 7.6,-7.60001 v -190.5 c 0,-4.1 -3.4,-7.5 -7.6,-7.5 z"
     style="fill:#cef4ec"
     id="path673"
     inkscape:connector-curvature="0" />
  <path
     d="m 471.90001,460.4001 a 7.7,7.7 0 0 1 -7.7,7.70001 7.7,7.7 0 0 1 -7.7,-7.70001 7.7,7.7 0 0 1 7.7,-7.7 7.7,7.7 0 0 1 7.7,7.7 z"
     class="st12"
     style="fill:#fd965b"
     id="path675"
     inkscape:connector-curvature="0" />
  <path
     d="m 500.20001,460.4001 a 7.7,7.7 0 0 1 -7.7,7.70001 7.7,7.7 0 0 1 -7.7,-7.70001 7.7,7.7 0 0 1 7.7,-7.7 7.7,7.7 0 0 1 7.7,7.7 z"
     class="st27"
     style="fill:#7d966c"
     id="path677"
     inkscape:connector-curvature="0" />
  <path
     d="m 528.50001,460.4001 a 7.7,7.7 0 0 1 -7.7,7.70001 7.7,7.7 0 0 1 -7.7,-7.70001 7.7,7.7 0 0 1 7.7,-7.7 7.7,7.7 0 0 1 7.7,7.7 z"
     class="st24"
     style="fill:#8f9991"
     id="path679"
     inkscape:connector-curvature="0" />
  <path
     class="st12"
     d="m 339.60001,592.8001 h -125.5 c -2.4,0 -4.4,2 -4.4,4.4 0,2.4 2,4.4 4.4,4.4 h 125.5 c 2.4,0 4.4,-2 4.4,-4.4 -0.1,-2.5 -2,-4.4 -4.4,-4.4 z"
     style="fill:#fd965b"
     id="path681"
     inkscape:connector-curvature="0" />
  <path
     class="st24"
     d="m 514.30001,592.8001 h -126.9 c -2,0 -3.7,1.6 -3.7,3.70001 v 1.39999 c 0,2 1.6,3.70001 3.7,3.70001 h 126.9 c 2,0 3.7,-1.6 3.7,-3.70001 v -1.39999 c 0,-2.10001 -1.7,-3.70001 -3.7,-3.70001 z"
     style="fill:#8f9991"
     id="path683"
     inkscape:connector-curvature="0" />
  <path
     class="st12"
     d="m 339.60001,621.8001 h -125.5 c -2.4,0 -4.4,2 -4.4,4.4 0,2.4 2,4.4 4.4,4.4 h 125.5 c 2.4,0 4.4,-2 4.4,-4.4 -0.1,-2.5 -2,-4.4 -4.4,-4.4 z"
     style="fill:#fd965b"
     id="path685"
     inkscape:connector-curvature="0" />
  <path
     class="st24"
     d="m 514.30001,621.8001 h -126.9 c -2,0 -3.7,1.6 -3.7,3.70001 v 1.39999 c 0,2 1.6,3.70001 3.7,3.70001 h 126.9 c 2,0 3.7,-1.6 3.7,-3.70001 v -1.39999 c 0,-2.10001 -1.7,-3.70001 -3.7,-3.70001 z"
     style="fill:#8f9991"
     id="path687"
     inkscape:connector-curvature="0" />
  <path
     class="st12"
     d="m 339.60001,650.8001 h -125.5 c -2.4,0 -4.4,2 -4.4,4.4 0,2.4 2,4.4 4.4,4.4 h 125.5 c 2.4,0 4.4,-2 4.4,-4.4 -0.1,-2.5 -2,-4.4 -4.4,-4.4 z"
     style="fill:#fd965b"
     id="path689"
     inkscape:connector-curvature="0" />
  <path
     class="st24"
     d="m 514.30001,650.8001 h -126.9 c -2,0 -3.7,1.6 -3.7,3.70001 v 1.39999 c 0,2 1.6,3.70001 3.7,3.70001 h 126.9 c 2,0 3.7,-1.6 3.7,-3.70001 v -1.39999 c 0,-2.10001 -1.7,-3.70001 -3.7,-3.70001 z"
     style="fill:#8f9991"
     id="path691"
     inkscape:connector-curvature="0" />
  <path
     d="m 212.50001,502.00011 h 131.5 v 65 h -131.5 z"
     class="st24"
     style="fill:#8f9991"
     id="path693"
     inkscape:connector-curvature="0" />
  <path
     d="m 383.70001,502.00011 h 131.5 v 65 h -131.5 z"
     class="st27"
     style="fill:#7d966c"
     id="path695"
     inkscape:connector-curvature="0" />
  <path
     class="st2"
     d="m 2005.0999,732.50013 h -100.9 c -3.2,0 -5.8,2.6 -5.8,5.8 v 194.59984 c 0,3.2 2.6,5.8 5.8,5.8 h 100.9 c 3.2,0 5.8,-2.6 5.8,-5.8 V 738.20013 c -0.1,-3.1 -2.6,-5.7 -5.8,-5.7 z"
     style="fill:#80bcb0"
     id="path697"
     inkscape:connector-curvature="0" />
  <path
     class="st29"
     d="m 2002.2999,752.50013 h -95.3 c -0.9,0 -1.6,0.7 -1.6,1.6 v 156.6999 c 0,0.9 0.7,1.6 1.6,1.6 h 95.3 c 0.9,0 1.6,-0.7 1.6,-1.6 v -156.6999 c 0,-0.9 -0.7,-1.6 -1.6,-1.6 z"
     style="fill:#cef4ec"
     id="path699"
     inkscape:connector-curvature="0" />
  <path
     class="st30"
     d="m 1965.4999,742.30013 h -21.7 c -1,0 -1.7,0.7 -1.7,1.6 0,0.9 0.8,1.6 1.7,1.6 h 21.7 c 1,0 1.7,-0.7 1.7,-1.6 0,-0.9 -0.7,-1.6 -1.7,-1.6 z"
     style="fill:#609389"
     id="path701"
     inkscape:connector-curvature="0" />
  <path
     d="m 1960.6998,926.29997 a 6.1,6.1 0 0 1 -6.1,6.1001 6.1,6.1 0 0 1 -6.1,-6.1001 6.1,6.1 0 0 1 6.1,-6.09994 6.1,6.1 0 0 1 6.1,6.09994 z"
     class="st0"
     style="fill:#9ee2d5"
     id="path703"
     inkscape:connector-curvature="0" />
  <path
     class="st27"
     d="m 2001.9999,752.50013 h -94.7 c -1.1,0 -1.9,0.8999 -1.9,1.8999 v 18.9 h 98.6 v -18.9 c -0.1,-1 -0.9,-1.8999 -2,-1.8999 z"
     style="fill:#7d966c"
     id="path705"
     inkscape:connector-curvature="0" />
  <path
     d="m 1920.9999,788.20013 h 68.2 v 47.7999 h -68.2 z"
     class="st12"
     style="fill:#fd965b"
     id="path707"
     inkscape:connector-curvature="0" />
  <path
     d="m 1920.9999,847.30003 h 68.2 v 47.8 h -68.2 z"
     class="st24"
     style="fill:#8f9991"
     id="path709"
     inkscape:connector-curvature="0" />
  <path
     class="st2"
     d="m 230.90001,871.80003 h -100.9 c -3.2,0 -5.8,2.6 -5.8,5.8 V 1072.2 c 0,3.2 2.6,5.8 5.8,5.8 h 100.9 c 3.2,0 5.8,-2.6 5.8,-5.8 V 877.60003 c 0,-3.2 -2.6,-5.8 -5.8,-5.8 z"
     style="fill:#80bcb0"
     id="path711"
     inkscape:connector-curvature="0" />
  <path
     class="st29"
     d="m 228.10001,891.80003 h -95.3 c -0.9,0 -1.6,0.7 -1.6,1.6 V 1050.1 c 0,0.9 0.7,1.6 1.6,1.6 h 95.3 c 0.9,0 1.6,-0.7 1.6,-1.6 V 893.40003 c 0.1,-0.9 -0.7,-1.6 -1.6,-1.6 z"
     style="fill:#cef4ec"
     id="path713"
     inkscape:connector-curvature="0" />
  <path
     class="st30"
     d="m 191.30001,881.60003 h -21.7 c -1,0 -1.7,0.7 -1.7,1.6 0,0.9 0.8,1.6 1.7,1.6 h 21.7 c 1,0 1.7,-0.7 1.7,-1.6 0,-0.9 -0.7,-1.6 -1.7,-1.6 z"
     style="fill:#609389"
     id="path715"
     inkscape:connector-curvature="0" />
  <path
     d="m 186.60001,1065.6 a 6.1,6.1 0 0 1 -6.1,6.1 6.1,6.1 0 0 1 -6.1,-6.1 6.1,6.1 0 0 1 6.1,-6.1 6.1,6.1 0 0 1 6.1,6.1 z"
     class="st0"
     style="fill:#9ee2d5"
     id="path717"
     inkscape:connector-curvature="0" />
  <path
     class="st27"
     d="m 227.80001,891.80003 h -94.7 c -1.1,0 -1.9,0.7 -1.9,1.5 v 14.9 h 98.6 v -14.9 c 0,-0.8 -0.9,-1.5 -2,-1.5 z"
     style="fill:#7d966c"
     id="path719"
     inkscape:connector-curvature="0" />
  <path
     d="m 139.40001,916.80003 h 36.9 v 36.89994 h -36.9 z"
     class="st24"
     style="fill:#8f9991"
     id="path721"
     inkscape:connector-curvature="0" />
  <path
     d="m 184.70001,916.80003 h 36.9 v 36.89994 h -36.9 z"
     class="st12"
     style="fill:#fd965b"
     id="path723"
     inkscape:connector-curvature="0" />
  <path
     d="m 139.40001,961.39997 h 36.9 v 36.9 h -36.9 z"
     class="st31"
     style="fill:#aaafab"
     id="path725"
     inkscape:connector-curvature="0" />
  <path
     d="m 184.70001,961.39997 h 36.9 v 36.9 h -36.9 z"
     class="st32"
     style="fill:#3f8989"
     id="path727"
     inkscape:connector-curvature="0" />
  <path
     d="m 139.40001,1006 h 36.9 v 36.9001 h -36.9 z"
     class="st12"
     style="fill:#fd965b"
     id="path729"
     inkscape:connector-curvature="0" />
  <path
     d="m 184.70001,1006 h 36.9 v 36.9001 h -36.9 z"
     class="st31"
     style="fill:#aaafab"
     id="path731"
     inkscape:connector-curvature="0" />
  <path
     class="st33"
     d="m 1488.3999,1087.5 h -12 c -4.4,0 -8,3.6 -8,8 0,4.4 3.6,8 8,8 h 12 c 4.4,0 8,-3.6 8,-8 0,-4.4 -3.6,-8 -8,-8 z"
     style="fill:#dcf9f2"
     id="path733"
     inkscape:connector-curvature="0" />
  <path
     class="st33"
     d="m 1552.9999,1087.5 h -21 c -4.4,0 -8,3.6 -8,8 0,4.4 3.6,8 8,8 h 21 c 4.4,0 8,-3.6 8,-8 0,-4.4 -3.6,-8 -8,-8 z"
     style="fill:#dcf9f2"
     id="path735"
     inkscape:connector-curvature="0" />
  <path
     class="st33"
     d="m 1617.5999,1087.5 h -21 c -4.4,0 -8,3.6 -8,8 0,4.4 3.6,8 8,8 h 21 c 4.4,0 8,-3.6 8,-8 0,-4.4 -3.6,-8 -8,-8 z"
     style="fill:#dcf9f2"
     id="path737"
     inkscape:connector-curvature="0" />
  <path
     class="st33"
     d="m 1682.1999,1087.5 h -21 c -4.4,0 -8,3.6 -8,8 0,4.4 3.6,8 8,8 h 21 c 4.4,0 8,-3.6 8,-8 0,-4.4 -3.6,-8 -8,-8 z"
     style="fill:#dcf9f2"
     id="path739"
     inkscape:connector-curvature="0" />
  <path
     class="st33"
     d="m 1737.8999,1075.5 c -4.4,0 -8,3.6 -8,8 v 4 h -4 c -4.4,0 -8,3.6 -8,8 0,4.4 3.6,8 8,8 h 12 c 4.4,0 8,-3.6 8,-8 v -12 c 0,-4.4 -3.6,-8 -8,-8 z"
     style="fill:#dcf9f2"
     id="path741"
     inkscape:connector-curvature="0" />
  <path
     class="st33"
     d="m 1737.8999,932.29997 c -4.4,0 -8,3.6 -8,8 v 23.2 c 0,4.4 3.6,8 8,8 4.4,0 8,-3.6 8,-8 v -23.2 c 0,-4.4 -3.6,-8 -8,-8 z"
     style="fill:#dcf9f2"
     id="path743"
     inkscape:connector-curvature="0" />
  <path
     class="st33"
     d="m 1737.8999,1003.9 c -4.4,0 -8,3.6 -8,8 v 23.2 c 0,4.4 3.6,8 8,8 4.4,0 8,-3.6 8,-8 v -23.2 c 0,-4.4 -3.6,-8 -8,-8 z"
     style="fill:#dcf9f2"
     id="path745"
     inkscape:connector-curvature="0" />
  <path
     class="st33"
     d="m 1737.8999,860.70003 c -4.4,0 -8,3.6 -8,8 v 23.2 c 0,4.4 3.6,8 8,8 4.4,0 8,-3.6 8,-8 v -23.2 c 0,-4.4 -3.6,-8 -8,-8 z"
     style="fill:#dcf9f2"
     id="path747"
     inkscape:connector-curvature="0" />
  <path
     class="st33"
     d="m 1737.8999,789.10013 c -4.4,0 -8,3.6 -8,8 v 23.1999 c 0,4.4 3.6,8 8,8 4.4,0 8,-3.6 8,-8 v -23.1999 c 0,-4.4 -3.6,-8 -8,-8 z"
     style="fill:#dcf9f2"
     id="path749"
     inkscape:connector-curvature="0" />
  <path
     class="st33"
     d="m 1737.8999,717.50013 c -4.4,0 -8,3.6 -8,8 v 23.2 c 0,4.4 3.6,7.9999 8,7.9999 4.4,0 8,-3.6 8,-7.9999 v -23.2 c 0,-4.4 -3.6,-8 -8,-8 z"
     style="fill:#dcf9f2"
     id="path751"
     inkscape:connector-curvature="0" />
  <path
     class="st33"
     d="m 1737.8999,574.3001 c -4.4,0 -8,3.6 -8,8 v 23.20001 c 0,4.39999 3.6,8 8,8 4.4,0 8,-3.60001 8,-8 V 582.3001 c 0,-4.4 -3.6,-8 -8,-8 z"
     style="fill:#dcf9f2"
     id="path753"
     inkscape:connector-curvature="0" />
  <path
     class="st33"
     d="m 1737.8999,645.9001 c -4.4,0 -8,3.60001 -8,8 v 23.20001 c 0,4.4 3.6,8 8,8 4.4,0 8,-3.6 8,-8 V 653.9001 c 0,-4.39999 -3.6,-8 -8,-8 z"
     style="fill:#dcf9f2"
     id="path755"
     inkscape:connector-curvature="0" />
  <path
     class="st33"
     d="m 1737.8999,513.9001 c -4.4,0 -8,3.60001 -8,8 v 12 c 0,4.4 3.6,8 8,8 4.4,0 8,-3.6 8,-8 v -12 c 0,-4.39999 -3.6,-8 -8,-8 z"
     style="fill:#dcf9f2"
     id="path757"
     inkscape:connector-curvature="0" />
  <path
     class="st33"
     d="m 1789.2999,1191.8 h -24 c -4.4,0 -8,3.6 -8,8 0,4.4 3.6,8 8,8 h 24 c 4.4,0 8,-3.6 8,-8 0,-4.4 -3.6,-8 -8,-8 z"
     style="fill:#dcf9f2"
     id="path759"
     inkscape:connector-curvature="0" />
  <path
     class="st33"
     d="m 1715.2999,1191.8 h -24 c -4.4,0 -8,3.6 -8,8 0,4.4 3.6,8 8,8 h 24 c 4.4,0 8,-3.6 8,-8 0,-4.4 -3.6,-8 -8,-8 z"
     style="fill:#dcf9f2"
     id="path761"
     inkscape:connector-curvature="0" />
  <path
     class="st33"
     d="m 1641.2999,1191.8 h -24 c -4.4,0 -8,3.6 -8,8 0,4.4 3.6,8 8,8 h 24 c 4.4,0 8,-3.6 8,-8 0,-4.4 -3.6,-8 -8,-8 z"
     style="fill:#dcf9f2"
     id="path763"
     inkscape:connector-curvature="0" />
  <path
     class="st33"
     d="m 1937.2999,1191.8 h -24 c -4.4,0 -8,3.6 -8,8 0,4.4 3.6,8 8,8 h 24 c 4.4,0 8,-3.6 8,-8 0,-4.4 -3.6,-8 -8,-8 z"
     style="fill:#dcf9f2"
     id="path765"
     inkscape:connector-curvature="0" />
  <path
     class="st33"
     d="m 1954.5999,1135.2 c -4.4,0 -8,3.6 -8,8 v 24 c 0,4.4 3.6,8 8,8 4.4,0 8,-3.6 8,-8 v -24 c 0,-4.4 -3.5,-8 -8,-8 z"
     style="fill:#dcf9f2"
     id="path767"
     inkscape:connector-curvature="0" />
  <path
     class="st33"
     d="m 1863.2999,1191.8 h -24 c -4.4,0 -8,3.6 -8,8 0,4.4 3.6,8 8,8 h 24 c 4.4,0 8,-3.6 8,-8 0,-4.4 -3.6,-8 -8,-8 z"
     style="fill:#dcf9f2"
     id="path769"
     inkscape:connector-curvature="0" />
  <path
     class="st33"
     d="m 1954.5999,1061.2 c -4.4,0 -8,3.6 -8,8 v 24 c 0,4.4 3.6,8 8,8 4.4,0 8,-3.6 8,-8 v -24 c 0,-4.4 -3.5,-8 -8,-8 z"
     style="fill:#dcf9f2"
     id="path771"
     inkscape:connector-curvature="0" />
  <path
     class="st33"
     d="m 1954.5999,987.19997 c -4.4,0 -8,3.6 -8,8 V 1019.2 c 0,4.4 3.6,8 8,8 4.4,0 8,-3.6 8,-8 v -24.00003 c 0,-4.4 -3.5,-8 -8,-8 z"
     style="fill:#dcf9f2"
     id="path773"
     inkscape:connector-curvature="0" />
  <path
     class="st33"
     d="m 261.10001,1191.8 h -24 c -4.4,0 -8,3.6 -8,8 0,4.4 3.6,8 8,8 h 24 c 4.4,0 8,-3.6 8,-8 0,-4.4 -3.5,-8 -8,-8 z"
     style="fill:#dcf9f2"
     id="path775"
     inkscape:connector-curvature="0" />
  <path
     class="st33"
     d="m 187.10001,1191.8 h -2.9 v -5.1 c 0,-4.4 -3.6,-8 -8,-8 -4.4,0 -8,3.6 -8,8 v 13.1 c 0,4.4 3.6,8 8,8 h 10.9 c 4.4,0 8,-3.6 8,-8 0,-4.4 -3.5,-8 -8,-8 z"
     style="fill:#dcf9f2"
     id="path777"
     inkscape:connector-curvature="0" />
  <path
     class="st33"
     d="m 176.20001,1144.7 c 4.4,0 8,-3.6 8,-8 v -16.1 c 0,-4.4 -3.6,-8 -8,-8 -4.4,0 -8,3.6 -8,8 v 16.1 c 0,4.5 3.6,8 8,8 z"
     style="fill:#dcf9f2"
     id="path779"
     inkscape:connector-curvature="0" />
  <path
     class="st33"
     d="m 557.10001,1191.8 h -24 c -4.4,0 -8,3.6 -8,8 0,4.4 3.6,8 8,8 h 24 c 4.4,0 8,-3.6 8,-8 0,-4.4 -3.5,-8 -8,-8 z"
     style="fill:#dcf9f2"
     id="path781"
     inkscape:connector-curvature="0" />
  <path
     class="st33"
     d="m 483.10001,1191.8 h -24 c -4.4,0 -8,3.6 -8,8 0,4.4 3.6,8 8,8 h 24 c 4.4,0 8,-3.6 8,-8 0,-4.4 -3.5,-8 -8,-8 z"
     style="fill:#dcf9f2"
     id="path783"
     inkscape:connector-curvature="0" />
  <path
     class="st33"
     d="m 409.10001,1191.8 h -24 c -4.4,0 -8,3.6 -8,8 0,4.4 3.6,8 8,8 h 24 c 4.4,0 8,-3.6 8,-8 0,-4.4 -3.5,-8 -8,-8 z"
     style="fill:#dcf9f2"
     id="path785"
     inkscape:connector-curvature="0" />
  <path
     class="st33"
     d="m 335.10001,1191.8 h -24 c -4.4,0 -8,3.6 -8,8 0,4.4 3.6,8 8,8 h 24 c 4.4,0 8,-3.6 8,-8 0,-4.4 -3.5,-8 -8,-8 z"
     style="fill:#dcf9f2"
     id="path787"
     inkscape:connector-curvature="0" />
  <path
     class="st33"
     d="m 366.70001,870.40003 c 4.4,0 8,-3.6 8,-8 v -24 c 0,-4.4 -3.6,-8 -8,-8 -4.4,0 -8,3.6 -8,8 v 24 c 0,4.4 3.6,8 8,8 z"
     style="fill:#dcf9f2"
     id="path789"
     inkscape:connector-curvature="0" />
  <path
     class="st33"
     d="m 366.70001,944.39997 c 4.4,0 8,-3.6 8,-8 v -23.99994 c 0,-4.4 -3.6,-8 -8,-8 -4.4,0 -8,3.6 -8,8 v 23.99994 c 0,4.4 3.6,8 8,8 z"
     style="fill:#dcf9f2"
     id="path791"
     inkscape:connector-curvature="0" />
  <path
     class="st33"
     d="m 366.70001,796.40003 c 4.4,0 8,-3.6 8,-7.9999 v -24.0001 c 0,-4.3999 -3.6,-8 -8,-8 -4.4,0 -8,3.6001 -8,8 v 24.0001 c 0,4.3999 3.6,7.9999 8,7.9999 z"
     style="fill:#dcf9f2"
     id="path793"
     inkscape:connector-curvature="0" />
  <path
     class="st33"
     d="m 385.50001,1057.6 h -11.3 c -1.1,-3 -4.1,-5.2 -7.5,-5.2 -4.4,0 -8,3.6 -8,8 v 5.2 c 0,4.4 3.6,8 8,8 h 18.8 c 4.4,0 8,-3.6 8,-8 0,-4.4 -3.6,-8 -8,-8 z"
     style="fill:#dcf9f2"
     id="path795"
     inkscape:connector-curvature="0" />
  <path
     class="st33"
     d="m 607.50001,1057.6 h -24 c -4.4,0 -8,3.6 -8,8 0,4.4 3.6,8 8,8 h 24 c 4.4,0 8,-3.6 8,-8 0,-4.4 -3.6,-8 -8,-8 z"
     style="fill:#dcf9f2"
     id="path797"
     inkscape:connector-curvature="0" />
  <path
     class="st33"
     d="m 533.50001,1057.6 h -24 c -4.4,0 -8,3.6 -8,8 0,4.4 3.6,8 8,8 h 24 c 4.4,0 8,-3.6 8,-8 0,-4.4 -3.6,-8 -8,-8 z"
     style="fill:#dcf9f2"
     id="path799"
     inkscape:connector-curvature="0" />
  <path
     class="st33"
     d="m 366.70001,1018.4 c 4.4,0 8,-3.6 8,-8 v -24.00003 c 0,-4.4 -3.6,-8 -8,-8 -4.4,0 -8,3.6 -8,8 V 1010.4 c 0,4.4 3.6,8 8,8 z"
     style="fill:#dcf9f2"
     id="path801"
     inkscape:connector-curvature="0" />
  <path
     class="st33"
     d="m 459.50001,1057.6 h -24 c -4.4,0 -8,3.6 -8,8 0,4.4 3.6,8 8,8 h 24 c 4.4,0 8,-3.6 8,-8 0,-4.4 -3.6,-8 -8,-8 z"
     style="fill:#dcf9f2"
     id="path803"
     inkscape:connector-curvature="0" />
</svg>
